<mxfile host="app.diagrams.net" agent="Mozilla/5.0 (Windows NT 10.0; Win64; x64) AppleWebKit/537.36 (KHTML, like Gecko) Chrome/134.0.0.0 Safari/537.36 Edg/134.0.0.0" version="26.1.0">
  <diagram name="PÃ¡gina-1" id="GkTMKcXA0Hi1UacExer3">
    <mxGraphModel dx="449" dy="287" grid="1" gridSize="10" guides="1" tooltips="1" connect="1" arrows="1" fold="1" page="1" pageScale="1" pageWidth="827" pageHeight="1169" math="0" shadow="0">
      <root>
        <mxCell id="0" />
        <mxCell id="1" parent="0" />
        <mxCell id="Vb8gpzdpSPszL-QCp0CH-1" value="Usuario" style="swimlane;fontStyle=1;align=center;verticalAlign=top;childLayout=stackLayout;horizontal=1;startSize=26;horizontalStack=0;resizeParent=1;resizeParentMax=0;resizeLast=0;collapsible=1;marginBottom=0;whiteSpace=wrap;html=1;labelBackgroundColor=none;sketch=1;curveFitting=1;jiggle=2;" parent="1" vertex="1">
          <mxGeometry x="280" y="200" width="270" height="190" as="geometry" />
        </mxCell>
        <mxCell id="Vb8gpzdpSPszL-QCp0CH-2" value="- id:int&lt;div&gt;- nome:String&lt;/div&gt;&lt;div&gt;- email:String&lt;/div&gt;&lt;div&gt;- senha:String&lt;/div&gt;" style="text;strokeColor=none;fillColor=none;align=left;verticalAlign=top;spacingLeft=4;spacingRight=4;overflow=hidden;rotatable=0;points=[[0,0.5],[1,0.5]];portConstraint=eastwest;whiteSpace=wrap;html=1;labelBackgroundColor=none;sketch=1;curveFitting=1;jiggle=2;" parent="Vb8gpzdpSPszL-QCp0CH-1" vertex="1">
          <mxGeometry y="26" width="270" height="64" as="geometry" />
        </mxCell>
        <mxCell id="Vb8gpzdpSPszL-QCp0CH-3" value="" style="line;strokeWidth=1;fillColor=none;align=left;verticalAlign=middle;spacingTop=-1;spacingLeft=3;spacingRight=3;rotatable=0;labelPosition=right;points=[];portConstraint=eastwest;labelBackgroundColor=none;sketch=1;curveFitting=1;jiggle=2;" parent="Vb8gpzdpSPszL-QCp0CH-1" vertex="1">
          <mxGeometry y="90" width="270" height="8" as="geometry" />
        </mxCell>
        <mxCell id="Vb8gpzdpSPszL-QCp0CH-4" value="+ cadastrar(nome, email,senha):boolean&lt;div&gt;+ apagar(id):boolean&lt;/div&gt;&lt;div&gt;+ editar(id, nome, email, senha):boolean&lt;/div&gt;&lt;div&gt;+ chkUser(email):boolean&lt;/div&gt;&lt;div&gt;+ chkPass(email, senha): String&lt;/div&gt;&lt;div&gt;+ construct():boolean&lt;/div&gt;" style="text;strokeColor=none;fillColor=none;align=left;verticalAlign=top;spacingLeft=4;spacingRight=4;overflow=hidden;rotatable=0;points=[[0,0.5],[1,0.5]];portConstraint=eastwest;whiteSpace=wrap;html=1;labelBackgroundColor=none;sketch=1;curveFitting=1;jiggle=2;" parent="Vb8gpzdpSPszL-QCp0CH-1" vertex="1">
          <mxGeometry y="98" width="270" height="92" as="geometry" />
        </mxCell>
      </root>
    </mxGraphModel>
  </diagram>
</mxfile>
